<svg xmlns="http://www.w3.org/2000/svg" viewBox="0 0 612 612">
  <path fill="#35bdb2" d="M0 0h612v612H0z"/>
  <path fill="#fff" d="M172.156 119.375v357h164c22.994 0 42.805-2.61 59.5-7.813 16.706-5.193 30.3-12.197 41-21 10.702-8.788 18.5-19.305 23.5-31.5 5-12.096 7.5-25.188 7.5-39.187 0-24.407-5.7-44.61-17-60.813-11.3-16.104-27.992-26.51-50-31.218v-.97c16.41-6.993 29.007-17.015 37.813-29.812 8.794-12.8 13.186-28.187 13.186-46.187 0-29.705-9.696-51.802-29-66.5-19.304-14.702-45.004-22-77-22zm62.5 50.906h102c17 0 30.002 3.696 39 11 8.99 7.3 13.5 19.974 13.5 37.97 0 16.006-4.998 28.213-15 36.813-10.002 8.6-22.497 12.812-37.5 12.812h-102zm0 143.47h110.5c19.007 0 33.62 4.623 44.22 14.22 10.6 9.602 15.78 23.08 15.78 40.78 0 18-5.286 32.014-15.78 41.813-10.408 9.896-25.213 14.812-44.22 14.812h-110.5z"/>
</svg>
